<svg xmlns="http://www.w3.org/2000/svg" width="60" height="40" viewBox="0 0 60 40">
    <defs>
        <linearGradient id="borderGradient" x1="0%" y1="0%" x2="100%" y2="0%">
            <stop offset="0%" style="stop-color:#246BEB;stop-opacity:1" />
            <stop offset="100%" style="stop-color:#FF0077;stop-opacity:1" />
        </linearGradient>
    </defs>

    <rect width="100%" height="100%" fill="#FFFFFF"/>

    <g fill="none" stroke="#111111" stroke-width="2" stroke-linecap="round" stroke-linejoin="round">
        <rect x="4" y="8" width="18" height="24" rx="3" ry="3"/>
        <polyline points="10,14 6,20 10,26"/>
        <polyline points="16,14 20,20 16,26"/>
        <line x1="13" y1="14" x2="13" y2="26"/>
        <rect x="42" y="8" width="14" height="24" rx="3" ry="3"/>
        <polyline points="50,8 50,14 56,14"/>
    </g>
    <g fill="#246BEB" stroke="#246BEB" stroke-width="2" stroke-linecap="round" stroke-linejoin="round">
        <line x1="26" y1="20" x2="40" y2="20"/>
        <polygon points="40,20 35,16 35,24"/>
    </g>
    <text x="5" y="35.5" font-family="Arial, sans-serif" font-size="2.2" fill="#1938212F" font-weight="bold">MRH</text>
    <rect x="1" y="1" width="58" height="38" rx="4" ry="4"
          fill="none"
          stroke="url(#borderGradient)"
          stroke-width="2"/>
</svg>