<svg xmlns="http://www.w3.org/2000/svg" width="27" height="19" viewBox="0 0 27 19">
    <defs>
        <linearGradient id="borderGradientSmall" x1="0%" y1="0%" x2="100%" y2="0%">
            <stop offset="0%" style="stop-color:#246BEB;stop-opacity:1" />
            <stop offset="100%" style="stop-color:#FF0077;stop-opacity:1" />
        </linearGradient>
    </defs>

    <rect width="100%" height="100%" fill="#FFFFFF"/>

    <g fill="none" stroke="#111111" stroke-width="1" stroke-linecap="round" stroke-linejoin="round">
        <rect x="2" y="3" width="8" height="13" rx="2" ry="2"/>
        <polyline points="5,6 3,9 5,12"/>
        <polyline points="7,6 9,9 7,12"/>
        <line x1="6" y1="6" x2="6" y2="12"/>
        <rect x="18" y="3" width="7" height="13" rx="2" ry="2"/>
        <polyline points="22,3 22,7 25,7"/>
    </g>
    <g fill="#246BEB" stroke="#246BEB" stroke-width="1" stroke-linecap="round" stroke-linejoin="round">
        <line x1="11" y1="9" x2="17" y2="9"/>
        <polygon points="17,9 14,6 14,12"/>
    </g>

    <text x="2" y="18.5" font-family="Arial, sans-serif" font-size="2.2" fill="#1938212F" font-weight="bold">MRH</text>

    <rect x="0" y="0" width="27" height="19" rx="3" ry="3"
          fill="none"
          stroke="url(#borderGradientSmall)"
          stroke-width="1"/>
</svg>